# xmcd
#
# Track frame offsets: 
#        150
#        18145
#        35303
#        52000
#        74153
#        95767
#        116485
#        137534
#        156507
#        172684
#        188342
#        206394
#        223486
#        242028
#        259562
#        275701
#        295676
#        331431
#
# Disc length: 4617 seconds
#
# Revision: 0
# Processed by: cddbd v1.5.2PL0 Copyright (c) Steve Scherf et al.
# Submitted via: ExactAudioCopy v0.95b4
#
DISCID=0c120712
DTITLE=Myriam Hernández - Huellas
DYEAR=2004
DGENRE=Latin
TTITLE0=He Vuelto Por Ti
TTITLE1=No Te He Robado Nada
TTITLE2=Mío (Junto a Los Nocheros)
TTITLE3=Huele a Peligro
TTITLE4=La Fuerza Del Amor
TTITLE5=El Amor De Mi Vida (Junto a Los Tetas y Dj Ju)
TTITLE6=Mañana
TTITLE7=Ese Hombre
TTITLE8=Se Me Fué
TTITLE9=Un Hombre Secreto
TTITLE10=Herida
TTITLE11=Te Pareces Tanto a El
TTITLE12=Peligroso Amor
TTITLE13=Eres
TTITLE14=El Hombre Que Yo Amo
TTITLE15=Ay Amor
TTITLE16=Lloraré
TTITLE17=CDS-200 Track
EXTD=
EXTT0=
EXTT1=
EXTT2=
EXTT3=
EXTT4=
EXTT5=
EXTT6=
EXTT7=
EXTT8=
EXTT9=
EXTT10=
EXTT11=
EXTT12=
EXTT13=
EXTT14=
EXTT15=
EXTT16=
EXTT17=
PLAYORDER=
